<svg xmlns="http://www.w3.org/2000/svg" viewBox="0 0 800 600" width="800" height="600">
<defs><radialGradient id="g" cx="50%" cy="48%" r="65%"><stop offset="0" stop-color="#ffffff" stop-opacity=".10"/><stop offset="1" stop-color="#000" stop-opacity=".35"/></radialGradient></defs>
<rect width="800" height="600" fill="#2a2220"/><rect width="800" height="600" fill="url(#g)"/>
<ellipse cx="410.0" cy="318.0" rx="231.0" ry="221.0" fill="#000" transform="rotate(0.0 410.0 318.0)" opacity="0.28"/><circle cx="400.0" cy="300.0" r="225.0" fill="#ece6d6"/><circle cx="400.0" cy="300.0" r="193.0" fill="#f8f4ea"/><circle cx="400.0" cy="300.0" r="193.0" fill="none" stroke="#dcd5c1" stroke-width="3"/><circle cx="529.0" cy="339.9" r="52.0" fill="#b83a2a"/><circle cx="529.0" cy="339.9" r="42.0" fill="#e0604c"/><circle cx="529.0" cy="339.9" r="26.0" fill="#f08a72" opacity="0.6"/><ellipse cx="559.0" cy="339.9" rx="5.0" ry="3.0" fill="#f6d98d" transform="rotate(0.0 559.0 339.9)"/><ellipse cx="538.1" cy="368.5" rx="5.0" ry="3.0" fill="#f6d98d" transform="rotate(72.2 538.1 368.5)"/><ellipse cx="504.6" cy="357.4" rx="5.0" ry="3.0" fill="#f6d98d" transform="rotate(144.4 504.6 357.4)"/><ellipse cx="504.9" cy="322.0" rx="5.0" ry="3.0" fill="#f6d98d" transform="rotate(216.6 504.9 322.0)"/><ellipse cx="538.6" cy="311.5" rx="5.0" ry="3.0" fill="#f6d98d" transform="rotate(288.8 538.6 311.5)"/><circle cx="449.2" cy="425.7" r="52.0" fill="#b83a2a"/><circle cx="449.2" cy="425.7" r="42.0" fill="#e0604c"/><circle cx="449.2" cy="425.7" r="26.0" fill="#f08a72" opacity="0.6"/><ellipse cx="479.2" cy="425.7" rx="5.0" ry="3.0" fill="#f6d98d" transform="rotate(0.0 479.2 425.7)"/><ellipse cx="458.4" cy="454.3" rx="5.0" ry="3.0" fill="#f6d98d" transform="rotate(72.2 458.4 454.3)"/><ellipse cx="424.8" cy="443.2" rx="5.0" ry="3.0" fill="#f6d98d" transform="rotate(144.4 424.8 443.2)"/><ellipse cx="425.1" cy="407.8" rx="5.0" ry="3.0" fill="#f6d98d" transform="rotate(216.6 425.1 407.8)"/><ellipse cx="458.9" cy="397.3" rx="5.0" ry="3.0" fill="#f6d98d" transform="rotate(288.8 458.9 397.3)"/><circle cx="332.4" cy="416.9" r="52.0" fill="#b83a2a"/><circle cx="332.4" cy="416.9" r="42.0" fill="#e0604c"/><circle cx="332.4" cy="416.9" r="26.0" fill="#f08a72" opacity="0.6"/><ellipse cx="362.4" cy="416.9" rx="5.0" ry="3.0" fill="#f6d98d" transform="rotate(0.0 362.4 416.9)"/><ellipse cx="341.6" cy="445.4" rx="5.0" ry="3.0" fill="#f6d98d" transform="rotate(72.2 341.6 445.4)"/><ellipse cx="308.0" cy="434.3" rx="5.0" ry="3.0" fill="#f6d98d" transform="rotate(144.4 308.0 434.3)"/><ellipse cx="308.3" cy="399.0" rx="5.0" ry="3.0" fill="#f6d98d" transform="rotate(216.6 308.3 399.0)"/><ellipse cx="342.1" cy="388.5" rx="5.0" ry="3.0" fill="#f6d98d" transform="rotate(288.8 342.1 388.5)"/><circle cx="266.5" cy="320.0" r="52.0" fill="#b83a2a"/><circle cx="266.5" cy="320.0" r="42.0" fill="#e0604c"/><circle cx="266.5" cy="320.0" r="26.0" fill="#f08a72" opacity="0.6"/><ellipse cx="296.5" cy="320.0" rx="5.0" ry="3.0" fill="#f6d98d" transform="rotate(0.0 296.5 320.0)"/><ellipse cx="275.7" cy="348.6" rx="5.0" ry="3.0" fill="#f6d98d" transform="rotate(72.2 275.7 348.6)"/><ellipse cx="242.1" cy="337.5" rx="5.0" ry="3.0" fill="#f6d98d" transform="rotate(144.4 242.1 337.5)"/><ellipse cx="242.4" cy="302.1" rx="5.0" ry="3.0" fill="#f6d98d" transform="rotate(216.6 242.4 302.1)"/><ellipse cx="276.1" cy="291.6" rx="5.0" ry="3.0" fill="#f6d98d" transform="rotate(288.8 276.1 291.6)"/><circle cx="301.1" cy="208.1" r="52.0" fill="#b83a2a"/><circle cx="301.1" cy="208.1" r="42.0" fill="#e0604c"/><circle cx="301.1" cy="208.1" r="26.0" fill="#f08a72" opacity="0.6"/><ellipse cx="331.1" cy="208.1" rx="5.0" ry="3.0" fill="#f6d98d" transform="rotate(0.0 331.1 208.1)"/><ellipse cx="310.3" cy="236.7" rx="5.0" ry="3.0" fill="#f6d98d" transform="rotate(72.2 310.3 236.7)"/><ellipse cx="276.7" cy="225.6" rx="5.0" ry="3.0" fill="#f6d98d" transform="rotate(144.4 276.7 225.6)"/><ellipse cx="277.0" cy="190.2" rx="5.0" ry="3.0" fill="#f6d98d" transform="rotate(216.6 277.0 190.2)"/><ellipse cx="310.8" cy="179.7" rx="5.0" ry="3.0" fill="#f6d98d" transform="rotate(288.8 310.8 179.7)"/><circle cx="410.2" cy="165.4" r="52.0" fill="#b83a2a"/><circle cx="410.2" cy="165.4" r="42.0" fill="#e0604c"/><circle cx="410.2" cy="165.4" r="26.0" fill="#f08a72" opacity="0.6"/><ellipse cx="440.2" cy="165.4" rx="5.0" ry="3.0" fill="#f6d98d" transform="rotate(0.0 440.2 165.4)"/><ellipse cx="419.4" cy="193.9" rx="5.0" ry="3.0" fill="#f6d98d" transform="rotate(72.2 419.4 193.9)"/><ellipse cx="385.8" cy="182.9" rx="5.0" ry="3.0" fill="#f6d98d" transform="rotate(144.4 385.8 182.9)"/><ellipse cx="386.1" cy="147.5" rx="5.0" ry="3.0" fill="#f6d98d" transform="rotate(216.6 386.1 147.5)"/><ellipse cx="419.8" cy="137.0" rx="5.0" ry="3.0" fill="#f6d98d" transform="rotate(288.8 419.8 137.0)"/><circle cx="511.6" cy="224.0" r="52.0" fill="#b83a2a"/><circle cx="511.6" cy="224.0" r="42.0" fill="#e0604c"/><circle cx="511.6" cy="224.0" r="26.0" fill="#f08a72" opacity="0.6"/><ellipse cx="541.6" cy="224.0" rx="5.0" ry="3.0" fill="#f6d98d" transform="rotate(0.0 541.6 224.0)"/><ellipse cx="520.8" cy="252.6" rx="5.0" ry="3.0" fill="#f6d98d" transform="rotate(72.2 520.8 252.6)"/><ellipse cx="487.2" cy="241.5" rx="5.0" ry="3.0" fill="#f6d98d" transform="rotate(144.4 487.2 241.5)"/><ellipse cx="487.5" cy="206.2" rx="5.0" ry="3.0" fill="#f6d98d" transform="rotate(216.6 487.5 206.2)"/><ellipse cx="521.3" cy="195.6" rx="5.0" ry="3.0" fill="#f6d98d" transform="rotate(288.8 521.3 195.6)"/><circle cx="406.0" cy="308.0" r="78.0" fill="#000" opacity="0.18"/><circle cx="400.0" cy="300.0" r="78.0" fill="#fbf8ef"/><circle cx="386.0" cy="284.0" r="50.0" fill="#ffffff" opacity="0.55"/><ellipse cx="492.1" cy="338.9" rx="24.0" ry="10.8" fill="#3f7d4e" transform="rotate(0.0 492.1 338.9)"/><line x1="472.9" y1="338.9" x2="511.3" y2="338.9" stroke="#2f6a3c" stroke-width="1.5" opacity=".6"/><ellipse cx="392.1" cy="399.7" rx="24.0" ry="10.8" fill="#3f7d4e" transform="rotate(71.6 392.1 399.7)"/><line x1="386.0" y1="381.5" x2="398.1" y2="417.9" stroke="#2f6a3c" stroke-width="1.5" opacity=".6"/><ellipse cx="302.9" cy="323.9" rx="24.0" ry="10.8" fill="#3f7d4e" transform="rotate(143.2 302.9 323.9)"/><line x1="318.3" y1="312.4" x2="287.5" y2="335.4" stroke="#2f6a3c" stroke-width="1.5" opacity=".6"/><ellipse cx="346.7" cy="215.4" rx="24.0" ry="10.8" fill="#3f7d4e" transform="rotate(214.9 346.7 215.4)"/><line x1="362.4" y1="226.4" x2="330.9" y2="204.4" stroke="#2f6a3c" stroke-width="1.5" opacity=".6"/><ellipse cx="463.5" cy="222.7" rx="24.0" ry="10.8" fill="#3f7d4e" transform="rotate(286.5 463.5 222.7)"/><line x1="458.0" y1="241.1" x2="468.9" y2="204.3" stroke="#2f6a3c" stroke-width="1.5" opacity=".6"/><circle cx="573.1" cy="250.4" r="1.6" fill="#d9c34a" opacity="0.6"/><circle cx="536.7" cy="380.7" r="3.0" fill="#d9c34a" opacity="0.6"/><circle cx="371.6" cy="248.8" r="2.7" fill="#d9c34a" opacity="0.6"/><circle cx="313.4" cy="231.5" r="1.8" fill="#d9c34a" opacity="0.6"/><circle cx="332.3" cy="331.6" r="2.9" fill="#d9c34a" opacity="0.6"/><circle cx="580.3" cy="293.6" r="2.6" fill="#d9c34a" opacity="0.6"/><circle cx="352.1" cy="317.4" r="1.6" fill="#d9c34a" opacity="0.6"/><circle cx="487.0" cy="315.1" r="2.1" fill="#d9c34a" opacity="0.6"/><circle cx="276.6" cy="416.1" r="2.6" fill="#d9c34a" opacity="0.6"/><circle cx="358.3" cy="283.4" r="1.5" fill="#d9c34a" opacity="0.6"/><circle cx="388.2" cy="323.1" r="2.5" fill="#d9c34a" opacity="0.6"/><circle cx="528.1" cy="298.5" r="1.9" fill="#d9c34a" opacity="0.6"/><circle cx="518.5" cy="205.8" r="3.0" fill="#d9c34a" opacity="0.6"/><circle cx="520.5" cy="219.4" r="3.1" fill="#d9c34a" opacity="0.6"/><circle cx="287.1" cy="448.3" r="3.4" fill="#d9c34a" opacity="0.6"/><circle cx="475.9" cy="421.5" r="2.9" fill="#d9c34a" opacity="0.6"/><circle cx="302.2" cy="324.3" r="2.5" fill="#d9c34a" opacity="0.6"/><circle cx="484.6" cy="256.5" r="3.2" fill="#d9c34a" opacity="0.6"/><circle cx="298.2" cy="433.3" r="3.3" fill="#d9c34a" opacity="0.6"/><circle cx="295.4" cy="326.3" r="3.3" fill="#d9c34a" opacity="0.6"/><circle cx="384.6" cy="208.8" r="1.9" fill="#d9c34a" opacity="0.6"/><circle cx="340.0" cy="418.6" r="1.8" fill="#d9c34a" opacity="0.6"/><circle cx="442.6" cy="272.0" r="3.3" fill="#d9c34a" opacity="0.6"/><circle cx="333.7" cy="469.4" r="2.9" fill="#d9c34a" opacity="0.6"/><circle cx="301.7" cy="297.5" r="2.8" fill="#d9c34a" opacity="0.6"/><circle cx="349.5" cy="269.0" r="1.9" fill="#d9c34a" opacity="0.6"/><circle cx="223.0" cy="287.0" r="2.7" fill="#d9c34a" opacity="0.6"/><circle cx="538.7" cy="371.1" r="3.0" fill="#d9c34a" opacity="0.6"/><circle cx="430.4" cy="280.0" r="3.0" fill="#d9c34a" opacity="0.6"/><circle cx="515.7" cy="344.7" r="2.0" fill="#d9c34a" opacity="0.6"/><circle cx="424.5" cy="464.5" r="1.7" fill="#d9c34a" opacity="0.6"/><circle cx="239.3" cy="277.5" r="2.0" fill="#d9c34a" opacity="0.6"/><circle cx="441.2" cy="462.2" r="2.3" fill="#d9c34a" opacity="0.6"/><circle cx="398.7" cy="294.1" r="2.2" fill="#d9c34a" opacity="0.6"/><circle cx="460.3" cy="412.7" r="1.7" fill="#d9c34a" opacity="0.6"/><circle cx="404.6" cy="298.6" r="3.0" fill="#d9c34a" opacity="0.6"/><circle cx="448.2" cy="306.4" r="3.1" fill="#d9c34a" opacity="0.6"/><circle cx="419.3" cy="329.1" r="2.9" fill="#d9c34a" opacity="0.6"/><circle cx="393.8" cy="305.4" r="3.5" fill="#d9c34a" opacity="0.6"/><circle cx="404.0" cy="305.6" r="2.2" fill="#d9c34a" opacity="0.6"/>
</svg>