<svg xmlns="http://www.w3.org/2000/svg" viewBox="0 0 800 600" width="800" height="600">
<defs><radialGradient id="g" cx="50%" cy="48%" r="65%"><stop offset="0" stop-color="#ffffff" stop-opacity=".10"/><stop offset="1" stop-color="#000" stop-opacity=".35"/></radialGradient></defs>
<rect width="800" height="600" fill="#0d1622"/><rect width="800" height="600" fill="url(#g)"/>
<rect width="800" height="600" fill="#0d1622"/><rect width="800" height="330" fill="#14223a" opacity=".7"/><path d="M-10 120 Q 200 180 400 120 T 810 120" stroke="#222" stroke-width="2" fill="none"/><circle cx="-10.0" cy="120.0" r="22.0" fill="#ffd27a" opacity="0.12"/><circle cx="-10.0" cy="120.0" r="10.0" fill="#ffd27a" opacity="0.25"/><circle cx="-10.0" cy="120.0" r="4.5" fill="#fff2cf"/><circle cx="44.7" cy="125.5" r="22.0" fill="#ffd27a" opacity="0.12"/><circle cx="44.7" cy="125.5" r="10.0" fill="#ffd27a" opacity="0.25"/><circle cx="44.7" cy="125.5" r="4.5" fill="#fff2cf"/><circle cx="99.3" cy="138.2" r="22.0" fill="#ffd27a" opacity="0.12"/><circle cx="99.3" cy="138.2" r="10.0" fill="#ffd27a" opacity="0.25"/><circle cx="99.3" cy="138.2" r="4.5" fill="#fff2cf"/><circle cx="154.0" cy="149.8" r="22.0" fill="#ffd27a" opacity="0.12"/><circle cx="154.0" cy="149.8" r="10.0" fill="#ffd27a" opacity="0.25"/><circle cx="154.0" cy="149.8" r="4.5" fill="#fff2cf"/><circle cx="208.7" cy="152.6" r="22.0" fill="#ffd27a" opacity="0.12"/><circle cx="208.7" cy="152.6" r="10.0" fill="#ffd27a" opacity="0.25"/><circle cx="208.7" cy="152.6" r="4.5" fill="#fff2cf"/><circle cx="263.3" cy="144.8" r="22.0" fill="#ffd27a" opacity="0.12"/><circle cx="263.3" cy="144.8" r="10.0" fill="#ffd27a" opacity="0.25"/><circle cx="263.3" cy="144.8" r="4.5" fill="#fff2cf"/><circle cx="318.0" cy="131.4" r="22.0" fill="#ffd27a" opacity="0.12"/><circle cx="318.0" cy="131.4" r="10.0" fill="#ffd27a" opacity="0.25"/><circle cx="318.0" cy="131.4" r="4.5" fill="#fff2cf"/><circle cx="372.7" cy="121.4" r="22.0" fill="#ffd27a" opacity="0.12"/><circle cx="372.7" cy="121.4" r="10.0" fill="#ffd27a" opacity="0.25"/><circle cx="372.7" cy="121.4" r="4.5" fill="#fff2cf"/><circle cx="427.3" cy="121.4" r="22.0" fill="#ffd27a" opacity="0.12"/><circle cx="427.3" cy="121.4" r="10.0" fill="#ffd27a" opacity="0.25"/><circle cx="427.3" cy="121.4" r="4.5" fill="#fff2cf"/><circle cx="482.0" cy="131.4" r="22.0" fill="#ffd27a" opacity="0.12"/><circle cx="482.0" cy="131.4" r="10.0" fill="#ffd27a" opacity="0.25"/><circle cx="482.0" cy="131.4" r="4.5" fill="#fff2cf"/><circle cx="536.7" cy="144.8" r="22.0" fill="#ffd27a" opacity="0.12"/><circle cx="536.7" cy="144.8" r="10.0" fill="#ffd27a" opacity="0.25"/><circle cx="536.7" cy="144.8" r="4.5" fill="#fff2cf"/><circle cx="591.3" cy="152.6" r="22.0" fill="#ffd27a" opacity="0.12"/><circle cx="591.3" cy="152.6" r="10.0" fill="#ffd27a" opacity="0.25"/><circle cx="591.3" cy="152.6" r="4.5" fill="#fff2cf"/><circle cx="646.0" cy="149.8" r="22.0" fill="#ffd27a" opacity="0.12"/><circle cx="646.0" cy="149.8" r="10.0" fill="#ffd27a" opacity="0.25"/><circle cx="646.0" cy="149.8" r="4.5" fill="#fff2cf"/><circle cx="700.7" cy="138.2" r="22.0" fill="#ffd27a" opacity="0.12"/><circle cx="700.7" cy="138.2" r="10.0" fill="#ffd27a" opacity="0.25"/><circle cx="700.7" cy="138.2" r="4.5" fill="#fff2cf"/><circle cx="755.3" cy="125.5" r="22.0" fill="#ffd27a" opacity="0.12"/><circle cx="755.3" cy="125.5" r="10.0" fill="#ffd27a" opacity="0.25"/><circle cx="755.3" cy="125.5" r="4.5" fill="#fff2cf"/><circle cx="810.0" cy="120.0" r="22.0" fill="#ffd27a" opacity="0.12"/><circle cx="810.0" cy="120.0" r="10.0" fill="#ffd27a" opacity="0.25"/><circle cx="810.0" cy="120.0" r="4.5" fill="#fff2cf"/><path d="M-10 200 Q 200 280 400 200 T 810 200" stroke="#222" stroke-width="2" fill="none"/><circle cx="-10.0" cy="200.0" r="22.0" fill="#ffd27a" opacity="0.12"/><circle cx="-10.0" cy="200.0" r="10.0" fill="#ffd27a" opacity="0.25"/><circle cx="-10.0" cy="200.0" r="4.5" fill="#fff2cf"/><circle cx="44.7" cy="207.3" r="22.0" fill="#ffd27a" opacity="0.12"/><circle cx="44.7" cy="207.3" r="10.0" fill="#ffd27a" opacity="0.25"/><circle cx="44.7" cy="207.3" r="4.5" fill="#fff2cf"/><circle cx="99.3" cy="224.3" r="22.0" fill="#ffd27a" opacity="0.12"/><circle cx="99.3" cy="224.3" r="10.0" fill="#ffd27a" opacity="0.25"/><circle cx="99.3" cy="224.3" r="4.5" fill="#fff2cf"/><circle cx="154.0" cy="239.8" r="22.0" fill="#ffd27a" opacity="0.12"/><circle cx="154.0" cy="239.8" r="10.0" fill="#ffd27a" opacity="0.25"/><circle cx="154.0" cy="239.8" r="4.5" fill="#fff2cf"/><circle cx="208.7" cy="243.5" r="22.0" fill="#ffd27a" opacity="0.12"/><circle cx="208.7" cy="243.5" r="10.0" fill="#ffd27a" opacity="0.25"/><circle cx="208.7" cy="243.5" r="4.5" fill="#fff2cf"/><circle cx="263.3" cy="233.0" r="22.0" fill="#ffd27a" opacity="0.12"/><circle cx="263.3" cy="233.0" r="10.0" fill="#ffd27a" opacity="0.25"/><circle cx="263.3" cy="233.0" r="4.5" fill="#fff2cf"/><circle cx="318.0" cy="215.2" r="22.0" fill="#ffd27a" opacity="0.12"/><circle cx="318.0" cy="215.2" r="10.0" fill="#ffd27a" opacity="0.25"/><circle cx="318.0" cy="215.2" r="4.5" fill="#fff2cf"/><circle cx="372.7" cy="201.9" r="22.0" fill="#ffd27a" opacity="0.12"/><circle cx="372.7" cy="201.9" r="10.0" fill="#ffd27a" opacity="0.25"/><circle cx="372.7" cy="201.9" r="4.5" fill="#fff2cf"/><circle cx="427.3" cy="201.9" r="22.0" fill="#ffd27a" opacity="0.12"/><circle cx="427.3" cy="201.9" r="10.0" fill="#ffd27a" opacity="0.25"/><circle cx="427.3" cy="201.9" r="4.5" fill="#fff2cf"/><circle cx="482.0" cy="215.2" r="22.0" fill="#ffd27a" opacity="0.12"/><circle cx="482.0" cy="215.2" r="10.0" fill="#ffd27a" opacity="0.25"/><circle cx="482.0" cy="215.2" r="4.5" fill="#fff2cf"/><circle cx="536.7" cy="233.0" r="22.0" fill="#ffd27a" opacity="0.12"/><circle cx="536.7" cy="233.0" r="10.0" fill="#ffd27a" opacity="0.25"/><circle cx="536.7" cy="233.0" r="4.5" fill="#fff2cf"/><circle cx="591.3" cy="243.5" r="22.0" fill="#ffd27a" opacity="0.12"/><circle cx="591.3" cy="243.5" r="10.0" fill="#ffd27a" opacity="0.25"/><circle cx="591.3" cy="243.5" r="4.5" fill="#fff2cf"/><circle cx="646.0" cy="239.8" r="22.0" fill="#ffd27a" opacity="0.12"/><circle cx="646.0" cy="239.8" r="10.0" fill="#ffd27a" opacity="0.25"/><circle cx="646.0" cy="239.8" r="4.5" fill="#fff2cf"/><circle cx="700.7" cy="224.3" r="22.0" fill="#ffd27a" opacity="0.12"/><circle cx="700.7" cy="224.3" r="10.0" fill="#ffd27a" opacity="0.25"/><circle cx="700.7" cy="224.3" r="4.5" fill="#fff2cf"/><circle cx="755.3" cy="207.3" r="22.0" fill="#ffd27a" opacity="0.12"/><circle cx="755.3" cy="207.3" r="10.0" fill="#ffd27a" opacity="0.25"/><circle cx="755.3" cy="207.3" r="4.5" fill="#fff2cf"/><circle cx="810.0" cy="200.0" r="22.0" fill="#ffd27a" opacity="0.12"/><circle cx="810.0" cy="200.0" r="10.0" fill="#ffd27a" opacity="0.25"/><circle cx="810.0" cy="200.0" r="4.5" fill="#fff2cf"/><path d="M-10 280 Q 200 330 400 280 T 810 280" stroke="#222" stroke-width="2" fill="none"/><circle cx="-10.0" cy="280.0" r="22.0" fill="#ffd27a" opacity="0.12"/><circle cx="-10.0" cy="280.0" r="10.0" fill="#ffd27a" opacity="0.25"/><circle cx="-10.0" cy="280.0" r="4.5" fill="#fff2cf"/><circle cx="44.7" cy="284.5" r="22.0" fill="#ffd27a" opacity="0.12"/><circle cx="44.7" cy="284.5" r="10.0" fill="#ffd27a" opacity="0.25"/><circle cx="44.7" cy="284.5" r="4.5" fill="#fff2cf"/><circle cx="99.3" cy="295.2" r="22.0" fill="#ffd27a" opacity="0.12"/><circle cx="99.3" cy="295.2" r="10.0" fill="#ffd27a" opacity="0.25"/><circle cx="99.3" cy="295.2" r="4.5" fill="#fff2cf"/><circle cx="154.0" cy="304.9" r="22.0" fill="#ffd27a" opacity="0.12"/><circle cx="154.0" cy="304.9" r="10.0" fill="#ffd27a" opacity="0.25"/><circle cx="154.0" cy="304.9" r="4.5" fill="#fff2cf"/><circle cx="208.7" cy="307.2" r="22.0" fill="#ffd27a" opacity="0.12"/><circle cx="208.7" cy="307.2" r="10.0" fill="#ffd27a" opacity="0.25"/><circle cx="208.7" cy="307.2" r="4.5" fill="#fff2cf"/><circle cx="263.3" cy="300.6" r="22.0" fill="#ffd27a" opacity="0.12"/><circle cx="263.3" cy="300.6" r="10.0" fill="#ffd27a" opacity="0.25"/><circle cx="263.3" cy="300.6" r="4.5" fill="#fff2cf"/><circle cx="318.0" cy="289.5" r="22.0" fill="#ffd27a" opacity="0.12"/><circle cx="318.0" cy="289.5" r="10.0" fill="#ffd27a" opacity="0.25"/><circle cx="318.0" cy="289.5" r="4.5" fill="#fff2cf"/><circle cx="372.7" cy="281.2" r="22.0" fill="#ffd27a" opacity="0.12"/><circle cx="372.7" cy="281.2" r="10.0" fill="#ffd27a" opacity="0.25"/><circle cx="372.7" cy="281.2" r="4.5" fill="#fff2cf"/><circle cx="427.3" cy="281.2" r="22.0" fill="#ffd27a" opacity="0.12"/><circle cx="427.3" cy="281.2" r="10.0" fill="#ffd27a" opacity="0.25"/><circle cx="427.3" cy="281.2" r="4.5" fill="#fff2cf"/><circle cx="482.0" cy="289.5" r="22.0" fill="#ffd27a" opacity="0.12"/><circle cx="482.0" cy="289.5" r="10.0" fill="#ffd27a" opacity="0.25"/><circle cx="482.0" cy="289.5" r="4.5" fill="#fff2cf"/><circle cx="536.7" cy="300.6" r="22.0" fill="#ffd27a" opacity="0.12"/><circle cx="536.7" cy="300.6" r="10.0" fill="#ffd27a" opacity="0.25"/><circle cx="536.7" cy="300.6" r="4.5" fill="#fff2cf"/><circle cx="591.3" cy="307.2" r="22.0" fill="#ffd27a" opacity="0.12"/><circle cx="591.3" cy="307.2" r="10.0" fill="#ffd27a" opacity="0.25"/><circle cx="591.3" cy="307.2" r="4.5" fill="#fff2cf"/><circle cx="646.0" cy="304.9" r="22.0" fill="#ffd27a" opacity="0.12"/><circle cx="646.0" cy="304.9" r="10.0" fill="#ffd27a" opacity="0.25"/><circle cx="646.0" cy="304.9" r="4.5" fill="#fff2cf"/><circle cx="700.7" cy="295.2" r="22.0" fill="#ffd27a" opacity="0.12"/><circle cx="700.7" cy="295.2" r="10.0" fill="#ffd27a" opacity="0.25"/><circle cx="700.7" cy="295.2" r="4.5" fill="#fff2cf"/><circle cx="755.3" cy="284.5" r="22.0" fill="#ffd27a" opacity="0.12"/><circle cx="755.3" cy="284.5" r="10.0" fill="#ffd27a" opacity="0.25"/><circle cx="755.3" cy="284.5" r="4.5" fill="#fff2cf"/><circle cx="810.0" cy="280.0" r="22.0" fill="#ffd27a" opacity="0.12"/><circle cx="810.0" cy="280.0" r="10.0" fill="#ffd27a" opacity="0.25"/><circle cx="810.0" cy="280.0" r="4.5" fill="#fff2cf"/><ellipse cx="130.0" cy="470.0" rx="90.0" ry="32.0" fill="#000" transform="rotate(0.0 130.0 470.0)" opacity="0.4"/><circle cx="130.0" cy="455.0" r="70.0" fill="#2b2b2b"/><circle cx="130.0" cy="455.0" r="64.0" fill="#3a3327"/><circle cx="203.4" cy="516.8" r="17.0" fill="#1e1a15"/><circle cx="68.2" cy="528.4" r="17.0" fill="#1e1a15"/><circle cx="56.6" cy="393.2" r="17.0" fill="#1e1a15"/><circle cx="191.8" cy="381.6" r="17.0" fill="#1e1a15"/><circle cx="130.0" cy="455.0" r="7.0" fill="#ffd27a" opacity="0.9"/><ellipse cx="400.0" cy="470.0" rx="90.0" ry="32.0" fill="#000" transform="rotate(0.0 400.0 470.0)" opacity="0.4"/><circle cx="400.0" cy="455.0" r="70.0" fill="#2b2b2b"/><circle cx="400.0" cy="455.0" r="64.0" fill="#3a3327"/><circle cx="473.4" cy="516.8" r="17.0" fill="#1e1a15"/><circle cx="338.2" cy="528.4" r="17.0" fill="#1e1a15"/><circle cx="326.6" cy="393.2" r="17.0" fill="#1e1a15"/><circle cx="461.8" cy="381.6" r="17.0" fill="#1e1a15"/><circle cx="400.0" cy="455.0" r="7.0" fill="#ffd27a" opacity="0.9"/><ellipse cx="670.0" cy="470.0" rx="90.0" ry="32.0" fill="#000" transform="rotate(0.0 670.0 470.0)" opacity="0.4"/><circle cx="670.0" cy="455.0" r="70.0" fill="#2b2b2b"/><circle cx="670.0" cy="455.0" r="64.0" fill="#3a3327"/><circle cx="743.4" cy="516.8" r="17.0" fill="#1e1a15"/><circle cx="608.2" cy="528.4" r="17.0" fill="#1e1a15"/><circle cx="596.6" cy="393.2" r="17.0" fill="#1e1a15"/><circle cx="731.8" cy="381.6" r="17.0" fill="#1e1a15"/><circle cx="670.0" cy="455.0" r="7.0" fill="#ffd27a" opacity="0.9"/><circle cx="60.0" cy="520.0" r="60.0" fill="#1d3a2a"/><circle cx="50.0" cy="512.0" r="36.0" fill="#2a5238"/><circle cx="760.0" cy="530.0" r="70.0" fill="#1d3a2a"/><circle cx="750.0" cy="522.0" r="42.0" fill="#2a5238"/><circle cx="300.0" cy="560.0" r="50.0" fill="#1d3a2a"/><circle cx="290.0" cy="552.0" r="30.0" fill="#2a5238"/><circle cx="560.0" cy="565.0" r="55.0" fill="#1d3a2a"/><circle cx="550.0" cy="557.0" r="33.0" fill="#2a5238"/>
</svg>